<svg width="18" height="19" viewBox="0 0 18 19" fill="none" xmlns="http://www.w3.org/2000/svg">
<path d="M12.7366 0.41748H5.60412C2.70543 0.41748 0.347168 2.77574 0.347168 5.67443V12.8069C0.347168 15.7056 2.70543 18.0639 5.60412 18.0639H12.7366C15.6353 18.0639 17.9936 15.7056 17.9936 12.8069V5.67443C17.9935 2.77574 15.6353 0.41748 12.7366 0.41748ZM16.2183 12.8069C16.2183 14.7298 14.6595 16.2886 12.7366 16.2886H5.60412C3.68123 16.2886 2.12239 14.7298 2.12239 12.8069V5.67443C2.12239 3.75151 3.68123 2.19271 5.60412 2.19271H12.7366C14.6595 2.19271 16.2183 3.75151 16.2183 5.67443V12.8069Z" fill="white"/>
<path d="M9.17055 4.67627C6.65397 4.67627 4.60657 6.72367 4.60657 9.24022C4.60657 11.7568 6.65397 13.8042 9.17055 13.8042C11.6871 13.8042 13.7345 11.7568 13.7345 9.24022C13.7345 6.72364 11.6871 4.67627 9.17055 4.67627ZM9.17055 12.029C7.63035 12.029 6.38179 10.7805 6.38179 9.24025C6.38179 7.70005 7.63038 6.4515 9.17055 6.4515C10.7108 6.4515 11.9593 7.70005 11.9593 9.24025C11.9593 10.7804 10.7107 12.029 9.17055 12.029Z" fill="white"/>
<path d="M13.7433 5.80419C14.3473 5.80419 14.8369 5.31456 14.8369 4.71057C14.8369 4.10658 14.3473 3.61694 13.7433 3.61694C13.1393 3.61694 12.6497 4.10658 12.6497 4.71057C12.6497 5.31456 13.1393 5.80419 13.7433 5.80419Z" fill="white"/>
</svg>
