<svg width="22" height="19" viewBox="0 0 22 19" fill="none" xmlns="http://www.w3.org/2000/svg">
<path d="M21.7819 2.58174C20.9823 2.93604 20.1244 3.17632 19.2229 3.28359C20.1434 2.73243 20.8479 1.8582 21.1818 0.819691C20.3185 1.33011 19.3655 1.70073 18.35 1.90165C17.5369 1.0342 16.3803 0.493896 15.0974 0.493896C12.6362 0.493896 10.6407 2.48945 10.6407 4.94927C10.6407 5.29814 10.6801 5.63888 10.7561 5.96471C7.0528 5.7787 3.76898 4.00444 1.57116 1.30838C1.18697 1.96544 0.968417 2.73104 0.968417 3.5483C0.968417 5.09452 1.75578 6.45883 2.95041 7.25702C2.22005 7.2326 1.53314 7.03168 0.931784 6.69773V6.75339C0.931784 8.91183 2.4685 10.7133 4.50611 11.1232C4.13279 11.2237 3.73912 11.2794 3.33186 11.2794C3.04409 11.2794 2.76579 11.2509 2.49292 11.1965C3.06034 12.9681 4.70568 14.2564 6.65508 14.2917C5.13058 15.4863 3.20833 16.1963 1.12049 16.1963C0.760758 16.1963 0.406424 16.1746 0.0575562 16.1352C2.03003 17.4018 4.37176 18.1403 6.88859 18.1403C15.0866 18.1403 19.5678 11.35 19.5678 5.46107L19.5529 4.88413C20.4284 4.25963 21.1859 3.475 21.7819 2.58174Z" fill="white"/>
</svg>
