<svg width="9" height="18" viewBox="0 0 9 18" fill="none" xmlns="http://www.w3.org/2000/svg">
<path d="M2.5445 3.62799C2.5445 4.07269 2.5445 6.05755 2.5445 6.05755H0.764526V9.02843H2.5445V17.8568H6.20095V9.02868H8.65459C8.65459 9.02868 8.88439 7.60416 8.99578 6.0466C8.67642 6.0466 6.21477 6.0466 6.21477 6.0466C6.21477 6.0466 6.21477 4.31824 6.21477 4.01529C6.21477 3.71169 6.61344 3.3033 7.00746 3.3033C7.40075 3.3033 8.23082 3.3033 8.99963 3.3033C8.99963 2.89881 8.99963 1.50121 8.99963 0.210449C7.97329 0.210449 6.80565 0.210449 6.29096 0.210449C2.45412 0.210244 2.5445 3.18408 2.5445 3.62799Z" fill="white"/>
</svg>
