<svg width="17" height="18" viewBox="0 0 17 18" fill="none" xmlns="http://www.w3.org/2000/svg">
<path d="M3.70189 5.50488H0.172607V17.8574H3.70189V5.50488Z" fill="white"/>
<path d="M3.70202 0.210449H0.172729V3.73973H3.70202V0.210449Z" fill="white"/>
<path d="M16.0543 17.8574H12.525V10.7988C12.525 10.3308 12.3391 9.88195 12.0081 9.55102C11.6772 9.22009 11.2284 9.03417 10.7604 9.03417C10.2923 9.03417 9.8435 9.22009 9.51257 9.55102C9.18163 9.88195 8.99572 10.3308 8.99572 10.7988V17.8574H5.46643V5.50488H8.99572V6.17015C9.92039 5.88252 10.521 5.50488 11.6427 5.50488C14.0361 5.50488 16.0543 7.65481 16.0543 10.1924V17.8574Z" fill="white"/>
</svg>
