<svg width="18" height="17" viewBox="0 0 18 17" fill="none" xmlns="http://www.w3.org/2000/svg">
<path d="M8.11136 0.816984C8.47817 0.0737382 9.53801 0.07374 9.90483 0.816986L11.708 4.47054C11.8536 4.76568 12.1352 4.97025 12.4609 5.01758L16.4928 5.60345C17.3131 5.72264 17.6406 6.73061 17.047 7.30915L14.1295 10.153C13.8938 10.3828 13.7863 10.7138 13.8419 11.0382L14.5307 15.0538C14.6708 15.8707 13.8133 16.4937 13.0797 16.108L9.47343 14.2121C9.18211 14.0589 8.83407 14.0589 8.54275 14.2121L4.93648 16.108C4.20285 16.4937 3.34542 15.8707 3.48553 15.0538L4.17427 11.0382C4.22991 10.7138 4.12236 10.3828 3.88667 10.153L0.969136 7.30914C0.375619 6.73061 0.70313 5.72264 1.52335 5.60345L5.55528 5.01758C5.88099 4.97025 6.16256 4.76568 6.30822 4.47054L8.11136 0.816984Z" fill="#FA7109"/>
</svg>
